<svg width="1024" height="1024" viewBox="0 0 1024 1024" fill="none" xmlns="http://www.w3.org/2000/svg">

<path d="M603.277 648.89L648.914 603.254L694.551 557.617L740.188 511.98L694.551 466.343L648.914 511.98L603.277 557.617L557.64 603.254L512.004 648.89L466.367 694.527L432.141 728.753C425.842 735.052 415.625 735.052 409.319 728.753L375.093 694.527L420.73 648.89L466.367 603.254L512.004 557.617L557.64 511.98L603.277 466.343L648.914 420.706L603.277 375.069L557.64 420.706L512.004 466.343L466.367 511.98L420.73 557.617L375.093 603.254L329.456 648.89L283.819 603.254L238.183 557.617L203.957 523.391C197.657 517.092 197.657 506.875 203.957 500.569L238.183 466.343L283.819 420.706L329.456 375.069L375.093 329.433L420.73 283.796L466.367 238.159C441.164 212.956 400.296 212.956 375.093 238.159L329.456 283.796L283.819 329.433L238.183 375.069L192.546 420.706L146.902 466.337C121.699 491.54 121.699 532.407 146.902 557.61L192.539 603.247L238.176 648.884L283.813 694.521L329.45 740.158L375.087 785.795C400.29 810.998 441.157 810.998 466.36 785.795L511.997 740.158L557.634 694.521L603.271 648.884L603.277 648.89Z" fill="#425563"/>
<path d="M557.64 238.152L512.003 283.789L466.366 329.426L420.729 375.063L375.093 420.7L329.456 466.337L283.819 511.973L329.456 557.61L375.093 511.973L420.729 466.337L466.366 420.7L512.003 375.063L557.64 329.426L591.866 295.2C598.165 288.901 608.382 288.901 614.688 295.2L648.914 329.426L694.55 375.063L740.187 420.7L785.824 466.337L820.05 500.563C826.349 506.862 826.349 517.079 820.05 523.384L785.824 557.61L740.187 603.247L694.55 648.884L648.914 694.521L603.277 740.158L557.64 785.795C582.843 810.998 623.71 810.998 648.914 785.795L694.55 740.158L740.187 694.521L785.824 648.884L831.461 603.247L877.098 557.61C902.301 532.407 902.301 491.54 877.098 466.337L831.461 420.7L785.824 375.063L740.187 329.426L694.55 283.789L648.914 238.152C623.71 212.949 582.843 212.949 557.64 238.152Z" fill="#00A9CE"/>
</svg>
