<svg xmlns="http://www.w3.org/2000/svg" viewBox="0 0 608.08 169.95"><defs><style>.cls-1{fill:#455a64;}.cls-2{fill:#00b8d4;}</style></defs><g id="Layer_2" data-name="Layer 2"><g id="레이어_1" data-name="레이어 1"><path class="cls-1" d="M90.31,0V18.06h-72V53.9h72V72h-72v45h72v17.92H.42V0Z"/><path class="cls-1" d="M149.28,0q27.85,0,47.57,19.71,19.71,19.86,19.72,47.7,0,28-19.72,47.7t-47.57,19.72H99.79V0Zm0,116.91a47.56,47.56,0,0,0,34.89-14.48,47.68,47.68,0,0,0,14.47-35,47.56,47.56,0,0,0-14.47-34.88,47.59,47.59,0,0,0-34.89-14.47H117.72v98.85Z"/><path class="cls-2" d="M357.3,116.91v17.92H289.88q-28,0-47.7-19.72t-19.72-47.7q0-27.84,19.72-47.7Q261.89,0,289.88,0a65.44,65.44,0,0,1,39.3,12.68A66.09,66.09,0,0,1,353.44,45H333.86a49,49,0,0,0-44-26.89,47.75,47.75,0,0,0-35,14.47,47.56,47.56,0,0,0-14.47,34.88,47.68,47.68,0,0,0,14.47,35,47.72,47.72,0,0,0,35,14.48Z"/><path class="cls-2" d="M493.49,134.83H473.63l-16-36H403.32l-16,36H367.61L430.48,0ZM411.31,80.92h38.33L430.48,37.77Z"/><path class="cls-2" d="M606.23,0V134.83l-89.88-91.4v91.4H498.42V0l89.89,89.89V0Z"/><path class="cls-1" d="M11.91,169.59H0V151.38H11.65v3.23H3.46v3.87H9.8v3.23H3.46v4.65h8.45Z"/><path class="cls-1" d="M40.63,151.38l-6.57,18.21h-3.9l-6.71-18.21h3.43L32,165.17l5-13.79Z"/><path class="cls-1" d="M65.13,169.59H53.22V151.38H64.87v3.23H56.68v3.87H63v3.23H56.68v4.65h8.45Z"/><path class="cls-1" d="M92.61,169.59H89.07l-3.69-6.76H82v6.76H78.68V151.38h6.64c4.17,0,6.25,1.76,6.25,5.26a5.68,5.68,0,0,1-.81,3.18,7.12,7.12,0,0,1-2.3,2.14Zm-8-15.42H82v5.54h2.45a4.31,4.31,0,0,0,2.88-.73,2.75,2.75,0,0,0,.78-2.11,2.58,2.58,0,0,0-.75-2A4.33,4.33,0,0,0,84.58,154.17Z"/><path class="cls-1" d="M119,151.38l-6.24,10.06v8.15h-3.33v-8.15l-6.24-10.06h3.46l4.45,7.27,4.44-7.27Z"/><path class="cls-1" d="M138.37,169.59h-6.81V151.38h6.81a9.11,9.11,0,1,1,0,18.21Zm0-15h-3.48v11.75h3.48a5,5,0,0,0,4-1.55,7.56,7.56,0,0,0,0-8.65A5,5,0,0,0,138.37,154.61Z"/><path class="cls-1" d="M174.79,169.59h-3.42l-1.56-4.4h-6.09l-1.57,4.4h-3.42l6.48-18.21h3.14ZM168.68,162l-1.9-5.38L164.86,162Z"/><path class="cls-1" d="M199.55,151.38l-6.24,10.06v8.15H190v-8.15l-6.24-10.06h3.46l4.45,7.27,4.44-7.27Z"/><path class="cls-2" d="M236.57,170a8.54,8.54,0,0,1-6.46-2.62,10.59,10.59,0,0,1,0-13.69,8.57,8.57,0,0,1,6.46-2.62,11.57,11.57,0,0,1,5.18,1.08l-.37,3.18a13.2,13.2,0,0,0-4.81-1,4.78,4.78,0,0,0-3.95,1.7,8.14,8.14,0,0,0,0,9.07,4.78,4.78,0,0,0,3.95,1.7,13.2,13.2,0,0,0,4.81-1l.37,3.18A11.57,11.57,0,0,1,236.57,170Z"/><path class="cls-2" d="M269.15,169.59h-3.54l-3.69-6.76h-3.38v6.76h-3.33V151.38h6.65c4.17,0,6.25,1.76,6.25,5.26a5.68,5.68,0,0,1-.81,3.18A7.22,7.22,0,0,1,265,162Zm-8-15.42h-2.58v5.54H261a4.31,4.31,0,0,0,2.88-.73,2.75,2.75,0,0,0,.78-2.11,2.58,2.58,0,0,0-.75-2A4.33,4.33,0,0,0,261.12,154.17Z"/><path class="cls-2" d="M294.08,169.59h-11.9V151.38h11.64v3.23h-8.19v3.87H292v3.23h-6.35v4.65h8.45Z"/><path class="cls-2" d="M321.76,169.59h-3.42l-1.55-4.4h-6.1l-1.56,4.4h-3.42l6.48-18.21h3.14ZM315.65,162l-1.89-5.38L311.84,162Z"/><path class="cls-2" d="M345.2,154.61h-5.15v15h-3.33v-15h-5.14v-3.23H345.2Z"/><path class="cls-2" d="M370.19,169.59H358.28V151.38h11.65v3.23h-8.19v3.87h6.34v3.23h-6.34v4.65h8.45Z"/><path class="cls-2" d="M414.4,169.59H411l-1.55-4.4h-6.1l-1.56,4.4h-3.43l6.48-18.21H408ZM408.29,162l-1.9-5.38L404.48,162Z"/><path class="cls-2" d="M438,169.59H427.2V151.38h3.33v15H438Z"/><path class="cls-2" d="M461.71,169.59H450.89V151.38h3.33v15h7.49Z"/><path class="cls-2" d="M505.49,169.59h-2.73l-8.32-12.49v12.49h-3.33V151.38h3.33l7.72,11.68V151.38h3.33Z"/><path class="cls-2" d="M523.51,169.59h-3.33V151.38h3.33Z"/><path class="cls-2" d="M546,170a8.49,8.49,0,0,1-6.39-2.61,9.54,9.54,0,0,1-2.5-6.88,9.4,9.4,0,0,1,2.52-6.84,8.72,8.72,0,0,1,6.55-2.6,15.6,15.6,0,0,1,2.94.3,9.91,9.91,0,0,1,2.52.78l-.36,3.18a13.3,13.3,0,0,0-5-1,5,5,0,0,0-4.12,1.69,7.94,7.94,0,0,0,.06,9.06,5.21,5.21,0,0,0,4.21,1.72,12.41,12.41,0,0,0,2.5-.28v-3.2h-2v-2.78h5.33v8.1a10.27,10.27,0,0,1-2.84,1A16,16,0,0,1,546,170Z"/><path class="cls-2" d="M581.38,169.59h-3.33v-7.88h-8.58v7.88h-3.32V151.38h3.32v7.1h8.58v-7.1h3.33Z"/><path class="cls-2" d="M608.08,154.61h-5.14v15h-3.33v-15h-5.15v-3.23h13.62Z"/></g></g></svg>